<svg xmlns="http://www.w3.org/2000/svg" width="60" height="60" viewBox="0 0 60 60" fill="none">
  <rect width="60" height="60" rx="14" fill="#FAF5FF"/>
  <!-- Office building -->
  <path d="M16 18C16 16.8954 16.8954 16 18 16H28C29.1046 16 30 16.8954 30 18V44H16V18Z" fill="#7E22CE" opacity="0.2"/>
  <rect x="19" y="20" width="3" height="3" rx="0.8" fill="#7E22CE"/>
  <rect x="24" y="20" width="3" height="3" rx="0.8" fill="#7E22CE"/>
  <rect x="19" y="26" width="3" height="3" rx="0.8" fill="#7E22CE"/>
  <rect x="24" y="26" width="3" height="3" rx="0.8" fill="#7E22CE"/>
  <!-- Executive Briefcase -->
  <rect x="24" y="24" width="22" height="18" rx="4" fill="#23326B"/>
  <path d="M30 24V21C30 19.8954 30.8954 19 32 19H38C39.1046 19 40 19.8954 40 21V24" stroke="#23326B" stroke-width="2.5" stroke-linecap="round" fill="none"/>
  <rect x="32" y="30" width="6" height="4" rx="1.5" fill="#E83B3B"/>
  <line x1="24" y1="32" x2="46" y2="32" stroke="#1E293B" stroke-width="1" opacity="0.4"/>
</svg>