<svg xmlns="http://www.w3.org/2000/svg" viewBox="0 0 120 110" width="100%" height="100%" fill="none">
  <!-- Outer Navy Blue 'C' Ring Arc -->
  <path d="M 78 24 A 38 38 0 1 0 82 84" fill="none" stroke="#1F3164" stroke-width="12" stroke-linecap="round" />
  
  <!-- Inner Thinner Navy Blue 'C' Arc -->
  <path d="M 76 36 A 25 25 0 1 0 79 72" fill="none" stroke="#1F3164" stroke-width="5.5" stroke-linecap="round" opacity="0.95" />

  <!-- Outer Red Orbit Swoosh Loop -->
  <path d="M 18 68 C 8 40, 38 16, 75 18 C 92 19, 104 28, 100 38 C 96 48, 76 60, 48 62 C 30 63, 16 80, 28 98 C 45 110, 85 102, 96 86" 
        fill="none" stroke="#C81E1E" stroke-width="5" stroke-linecap="round" />

  <!-- Red Upward Growth Trend Arrow -->
  <path d="M 16 68 L 36 72 L 58 46 L 72 60 L 108 14" 
        fill="none" stroke="#C81E1E" stroke-width="6.5" stroke-linecap="round" stroke-linejoin="round" />
  
  <!-- Solid Red Arrowhead -->
  <polygon points="112,10 92,14 104,28" fill="#C81E1E" />
</svg>